<svg width="167.375px" height="267.2px" xmlns="http://www.w3.org/2000/svg" viewBox="166.3125 -58.599999999999994 167.375 267.2" style="background: rgba(255, 255, 255, 0);" preserveAspectRatio="xMidYMid"><defs><linearGradient id="editing-glowing-gradient" x1="0" x2="1" y1="0.5000000000000001" y2="0.4999999999999999"><stop offset="0" stop-color="#59ff32"></stop><stop offset="1" stop-color="#63ffff"></stop></linearGradient><filter id="editing-glowing" x="-100%" y="-100%" width="300%" height="300%"><feGaussianBlur in="SourceGraphic" result="blur" stdDeviation="5"></feGaussianBlur><feMerge><feMergeNode in="blur"></feMergeNode><feMergeNode in="SourceGraphic"></feMergeNode></feMerge></filter></defs><g filter="url(#editing-glowing)"><g transform="translate(196.27000999450684, 118.4950008392334)"><path d="M15.74-21.36L15.74-21.36L16.25-12.03L16.25-12.03Q16.25-11.26 16.18-9.21L16.18-9.21L16.18-9.21Q16.12-7.16 14.65-5.56L14.65-5.56L14.65-5.56Q13.18-3.97 11.07-3.97L11.07-3.97L11.07-3.97Q8.96-3.97 7.80-4.09L7.80-4.09L7.80-4.09Q3.58-4.09 3.58-7.80L3.58-7.80L3.58-7.80Q3.58-10.87 6.40-32.56L6.40-32.56L6.40-32.56Q9.21-54.24 9.98-60.51L9.98-60.51L9.98-60.51Q10.75-66.78 11.32-71.06L11.32-71.06L11.32-71.06Q11.90-75.35 12.15-77.40L12.15-77.40L12.15-77.40Q12.41-79.44 12.92-81.49L12.92-81.49L12.92-81.49Q13.43-83.54 14.46-84.82L14.46-84.82L14.46-84.82Q16.38-87.25 21.88-87.25L21.88-87.25L21.88-87.25Q31.09-82.64 40.81-61.15L40.81-61.15L40.81-61.15Q47.72-45.80 50.02-41.71L50.02-41.71L50.02-41.71Q52.32-37.61 54.50-36.08L54.50-36.08L80.08-80.60L80.08-80.60Q82.77-82.51 84.18-82.51L84.18-82.51L84.18-82.51Q88.27-82.51 90.45-78.80L90.45-78.80L90.45-78.80Q92.62-75.09 94.09-69.79L94.09-69.79L94.09-69.79Q95.56-64.48 96.65-58.08L96.65-58.08L96.65-58.08Q97.74-51.68 98.57-44.71L98.57-44.71L98.57-44.71Q99.40-37.74 100.17-31.09L100.17-31.09L100.17-31.09Q101.96-15.10 102.92-11.00L102.92-11.00L102.92-11.00Q103.88-6.91 103.88-5.18L103.88-5.18L103.88-5.18Q103.88-3.45 102.73-1.85L102.73-1.85L102.73-1.85Q101.58-0.26 99.53-0.26L99.53-0.26L99.53-0.26Q97.48-0.26 95.44-1.85L95.44-1.85L95.44-1.85Q93.39-3.45 92.94-5.82L92.94-5.82L92.94-5.82Q92.49-8.19 92.05-12.03L92.05-12.03L92.05-12.03Q91.60-15.86 90.96-20.66L90.96-20.66L90.96-20.66Q90.32-25.46 89.68-30.77L89.68-30.77L89.68-30.77Q89.04-36.08 88.40-40.94L88.40-40.94L88.40-40.94Q87.76-45.80 87.25-49.57L87.25-49.57L87.25-49.57Q86.74-53.35 86.48-55.27L86.48-55.27L86.48-55.27Q86.48-57.82 86.35-60.00L86.35-60.00L86.35-60.00Q86.22-62.17 85.33-62.69L85.33-62.69L85.33-62.69Q84.43-63.20 82.58-61.47L82.58-61.47L82.58-61.47Q80.72-59.74 77.40-54.50L77.40-54.50L77.40-54.50Q70.23-43.37 56.67-17.01L56.67-17.01L56.67-17.01Q54.88-13.82 51.94-15.61L51.94-15.61L51.94-15.61Q48.49-17.53 46.05-25.46L46.05-25.46L22.52-75.48L22.52-75.48Q19.45-69.34 16.89-34.80L16.89-34.80L16.89-34.80Q16.50-30.58 16.38-27.63L16.38-27.63L16.38-27.63Q15.74-24.43 15.74-21.36Z" fill="url(#editing-glowing-gradient)"></path></g></g><style>text {
  font-size: 64px;
  font-family: Arial Black;
  dominant-baseline: central;
  text-anchor: middle;
}</style></svg>